# Blender v2.82 (sub 7) OBJ File: 'EverythingLibrary_Furnishings_001.blend'
# www.blender.org
mtllib EverythingLibrary_Furnishings_Tamble.mtl
o WoodenTable_Mesh.1478
v 40.868683 0.899814 15.315051
v 40.868683 0.899814 14.495051
v 42.288681 0.899814 15.315051
v 42.327682 0.899814 15.225051
v 40.868683 0.899814 15.225051
v 42.288681 0.899814 14.585052
v 40.829681 0.899814 14.585052
v 42.328445 0.929814 14.585052
v 40.958683 0.899814 15.354052
v 40.958683 0.899814 15.315051
v 42.198681 0.899814 14.585052
v 42.198681 0.929814 14.585052
v 42.198681 0.899814 14.456051
v 42.198681 0.929814 15.354814
v 42.198681 0.899814 15.315051
v 40.958683 0.899814 14.585052
v 40.868683 -0.000186 15.315051
v 40.958683 -0.000186 15.315051
v 40.958683 -0.000186 14.585052
v 40.868683 -0.000186 14.585052
v 42.288681 -0.000186 15.315051
v 42.198681 -0.000186 15.315051
v 42.198681 -0.000186 14.495051
v 40.829681 0.899814 15.354052
v 42.327682 0.899814 15.354052
v 42.327682 0.899814 14.456051
v 40.958683 0.899814 14.456051
v 40.828918 0.929814 15.354814
v 42.328445 0.929814 15.354814
v 40.958683 0.929814 15.354814
v 40.828918 0.929814 15.225051
v 40.958683 0.899814 15.292051
v 40.958683 0.929814 15.225051
v 42.198681 0.899814 15.292051
v 42.198681 0.929814 15.225051
v 40.958683 -0.000186 15.225051
v 40.828918 0.929814 14.455289
v 42.288681 0.899814 14.495051
v 40.958683 0.899814 14.495051
v 40.958683 0.929814 14.455289
v 40.958683 -0.000186 14.495051
v 40.868683 -0.000186 14.495051
v 42.288681 -0.000186 14.495051
v 42.198681 -0.000186 14.585052
v 40.829681 0.899814 15.225051
v 42.328445 0.929814 15.225051
v 42.288681 0.899814 15.225051
v 40.958683 0.899814 15.225051
v 40.868683 -0.000186 15.225051
v 42.198681 -0.000186 15.225051
v 42.288681 -0.000186 15.225051
v 42.327682 0.899814 14.585052
v 40.828918 0.929814 14.585052
v 40.829681 0.899814 14.456051
v 42.328445 0.929814 14.455289
v 40.868683 0.899814 14.585052
v 42.198681 0.929814 14.455289
v 40.958683 0.929814 14.585052
v 42.288681 -0.000186 14.585052
v 42.265682 0.899814 15.225051
v 42.265682 0.899814 14.585052
v 42.198681 0.899814 15.354052
v 42.198681 0.899814 14.495051
v 42.198681 0.899814 15.225051
v 40.891682 0.899814 14.585052
v 40.915684 0.899814 15.225051
v 40.915684 0.899814 14.585052
v 40.958683 0.899814 14.518051
v 42.198681 0.899814 14.542051
v 40.958683 0.899814 14.542051
v 42.198681 0.899814 14.518051
v 40.958683 0.899814 15.268051
v 42.198681 0.899814 15.268051
v 42.241680 0.899814 15.225051
v 42.241680 0.899814 14.585052
v 40.891682 0.899814 15.225051
v 40.958683 0.799814 14.518051
v 42.198681 0.799814 14.518051
v 42.198681 0.799814 14.542051
v 40.958683 0.799814 14.542051
v 40.958683 0.799814 15.268051
v 42.198681 0.799814 15.268051
v 42.198681 0.799814 15.292051
v 40.958683 0.799814 15.292051
v 42.241680 0.799814 15.225051
v 42.241680 0.799814 14.585052
v 42.265682 0.799814 14.585052
v 42.265682 0.799814 15.225051
v 40.891682 0.799814 15.225051
v 40.891682 0.799814 14.585052
v 40.915684 0.799814 14.585052
v 40.915684 0.799814 15.225051
vt 0.356486 0.535134
vt 0.345820 0.534864
vt 0.345820 0.489000
vt 0.356486 0.489000
vt 0.376777 0.520726
vt 0.362910 0.534592
vt 0.362910 0.488727
vt 0.376777 0.488727
vt 0.636322 0.520726
vt 0.408776 0.520726
vt 0.408776 0.512549
vt 0.636322 0.512549
vt 0.158893 0.812709
vt 0.158893 0.585163
vt 0.169556 0.585163
vt 0.169556 0.812709
vt 0.142246 0.812708
vt 0.142246 0.585162
vt 0.152912 0.585162
vt 0.152912 0.812708
vt 0.636322 0.534592
vt 0.408776 0.534592
vt 0.408776 0.001991
vt 0.636322 0.001991
vt 0.636322 0.015857
vt 0.408776 0.015857
vt 0.001941 0.489000
vt 0.012609 0.489000
vt 0.012609 0.534869
vt 0.001941 0.535140
vt 0.668322 0.488727
vt 0.682186 0.488727
vt 0.682186 0.534592
vt 0.668322 0.520726
vt 0.065357 0.489002
vt 0.292903 0.489002
vt 0.292903 0.535137
vt 0.065357 0.535137
vt 0.345820 0.048127
vt 0.356486 0.048127
vt 0.012609 0.048127
vt 0.001941 0.048127
vt 0.362910 0.047856
vt 0.376777 0.047856
vt 0.682186 0.047856
vt 0.668322 0.047856
vt 0.704799 0.458150
vt 0.704799 0.017279
vt 0.932344 0.017279
vt 0.932344 0.458150
vt 0.292903 0.048130
vt 0.065357 0.048130
vt 0.745194 0.797319
vt 0.745194 0.477330
vt 0.777193 0.797319
vt 0.753372 0.477330
vt 0.761904 0.477330
vt 0.777193 0.477330
vt 0.625285 0.538482
vt 0.625285 0.858469
vt 0.593287 0.858469
vt 0.593287 0.538482
vt 0.707218 0.797319
vt 0.707218 0.477330
vt 0.739217 0.477330
vt 0.739217 0.797319
vt 0.587309 0.538482
vt 0.587309 0.858469
vt 0.555310 0.538482
vt 0.572021 0.858469
vt 0.563488 0.858469
vt 0.555310 0.858469
vt 0.660144 0.047856
vt 0.660144 0.488727
vt 0.142246 0.539297
vt 0.152912 0.539026
vt 0.682186 0.001991
vt 0.668322 0.015857
vt 0.947633 0.017279
vt 0.947633 0.458150
vt 0.517332 0.538482
vt 0.549332 0.538482
vt 0.549332 0.858469
vt 0.534042 0.858469
vt 0.525510 0.858469
vt 0.517332 0.858469
vt 0.511354 0.538482
vt 0.511354 0.858469
vt 0.479354 0.858469
vt 0.479354 0.538482
vt 0.384955 0.047856
vt 0.384955 0.488727
vt 0.408776 0.024034
vt 0.636322 0.024034
vt 0.345820 0.002263
vt 0.356486 0.001991
vt 0.362910 0.001991
vt 0.376777 0.015857
vt 0.704799 0.001991
vt 0.932344 0.001991
vt 0.701240 0.858474
vt 0.669241 0.858474
vt 0.669241 0.538484
vt 0.684528 0.538484
vt 0.693062 0.538484
vt 0.701240 0.538484
vt 0.631264 0.858474
vt 0.631264 0.538484
vt 0.663262 0.538484
vt 0.663262 0.858474
vt 0.704799 0.473439
vt 0.932344 0.473439
vt 0.207205 0.894901
vt 0.207205 0.862902
vt 0.239204 0.862902
vt 0.239204 0.894901
vt 0.019220 0.489002
vt 0.019220 0.535137
vt 0.158893 0.858574
vt 0.169556 0.858847
vt 0.019220 0.048130
vt 0.473375 0.858469
vt 0.441376 0.858469
vt 0.441376 0.538482
vt 0.473375 0.538482
vt 0.418688 0.858469
vt 0.403399 0.858469
vt 0.403399 0.538482
vt 0.435398 0.538482
vt 0.427221 0.858469
vt 0.435398 0.858469
vt 0.245183 0.894901
vt 0.245183 0.862902
vt 0.277182 0.862902
vt 0.277182 0.894901
vt 0.152912 0.858844
vt 0.142246 0.858574
vt 0.158893 0.539299
vt 0.169556 0.539026
vt 0.689510 0.017279
vt 0.689510 0.458150
vt 0.339041 0.048130
vt 0.339041 0.489002
vt 0.380712 0.858469
vt 0.365422 0.858469
vt 0.365422 0.538482
vt 0.397422 0.538482
vt 0.389245 0.858469
vt 0.397422 0.858469
vt 0.327443 0.859013
vt 0.327443 0.539026
vt 0.359441 0.539026
vt 0.359441 0.859013
vt 0.289466 0.859013
vt 0.289466 0.539026
vt 0.321466 0.539026
vt 0.321466 0.859013
vt 0.251486 0.859013
vt 0.251486 0.539026
vt 0.259664 0.859013
vt 0.283485 0.539026
vt 0.268196 0.859013
vt 0.283485 0.859013
vt 0.292903 0.001993
vt 0.339041 0.001993
vt 0.285058 0.894900
vt 0.285058 0.862902
vt 0.317057 0.862902
vt 0.317057 0.894900
vt 0.356932 0.862902
vt 0.356932 0.894900
vt 0.324933 0.894900
vt 0.324933 0.862902
vt 0.339041 0.535137
vt 0.797681 0.477328
vt 0.806214 0.477328
vt 0.806214 0.918200
vt 0.797681 0.918200
vt 0.783170 0.477328
vt 0.791703 0.477328
vt 0.791703 0.918200
vt 0.783170 0.918200
vt 0.001941 0.001993
vt 0.012609 0.002263
vt 0.065357 0.001993
vt 0.213509 0.859013
vt 0.213509 0.539026
vt 0.245508 0.539026
vt 0.245508 0.859013
vt 0.190820 0.859013
vt 0.175533 0.859013
vt 0.175533 0.539026
vt 0.207531 0.539026
vt 0.199354 0.859013
vt 0.207531 0.859013
vt 0.019220 0.001993
vt 0.127734 0.539026
vt 0.136268 0.539026
vt 0.136268 0.766571
vt 0.127734 0.766571
vt 0.113223 0.539026
vt 0.121756 0.539026
vt 0.121756 0.766571
vt 0.113223 0.766571
vt 0.936789 0.918202
vt 0.936789 0.477330
vt 0.972345 0.477330
vt 0.972345 0.918202
vt 0.124595 0.806015
vt 0.116062 0.806015
vt 0.116062 0.770461
vt 0.124595 0.770461
vt 0.930811 0.477329
vt 0.930811 0.918201
vt 0.895257 0.918201
vt 0.895257 0.477329
vt 0.139784 0.898287
vt 0.131252 0.898287
vt 0.131252 0.862734
vt 0.139784 0.862734
vt 0.853723 0.918202
vt 0.853723 0.477330
vt 0.889279 0.477330
vt 0.889279 0.918202
vt 0.154976 0.898290
vt 0.146443 0.898290
vt 0.146443 0.862737
vt 0.154976 0.862737
vt 0.847745 0.477329
vt 0.847745 0.918201
vt 0.812191 0.918201
vt 0.812191 0.477329
vt 0.170166 0.898290
vt 0.161633 0.898290
vt 0.161633 0.862737
vt 0.170166 0.862737
vt 0.107245 0.539026
vt 0.107245 0.766572
vt 0.071691 0.766572
vt 0.071691 0.539026
vt 0.085680 0.770460
vt 0.094214 0.770460
vt 0.094214 0.806016
vt 0.085680 0.806016
vt 0.065715 0.539026
vt 0.065715 0.766572
vt 0.030164 0.766572
vt 0.030164 0.539026
vt 0.185358 0.898456
vt 0.176824 0.898456
vt 0.176824 0.862903
vt 0.185358 0.862903
vt 0.037495 0.770462
vt 0.037495 0.998008
vt 0.001941 0.998008
vt 0.001941 0.770462
vt 0.100871 0.770460
vt 0.109403 0.770460
vt 0.109403 0.806016
vt 0.100871 0.806016
vt 0.079457 0.770462
vt 0.079457 0.998008
vt 0.043906 0.998008
vt 0.043906 0.770462
vt 0.200547 0.898456
vt 0.192015 0.898456
vt 0.192015 0.862903
vt 0.200547 0.862903
vn 0.0000 -0.0254 0.9997
vn 0.0000 -1.0000 0.0000
vn 0.9997 -0.0254 -0.0000
vn -0.9997 -0.0254 -0.0000
vn 0.0000 -0.0254 -0.9997
vn 0.0000 1.0000 0.0000
vn 0.0000 0.0000 -1.0000
vn 0.0000 0.0000 1.0000
vn 1.0000 0.0000 0.0000
vn 0.9997 -0.0255 0.0000
vn -1.0000 0.0000 0.0000
usemtl Mat_Standard.004
s off
f 28/1/1 24/2/1 9/3/1 30/4/1
f 2/5/2 54/6/2 27/7/2 39/8/2
f 5/9/2 56/10/2 65/11/2 76/12/2
f 4/13/3 52/14/3 8/15/3 46/16/3
f 7/17/4 45/18/4 31/19/4 53/20/4
f 45/21/2 7/22/2 56/10/2 5/9/2
f 52/23/2 4/24/2 47/25/2 6/26/2
f 40/27/5 27/28/5 54/29/5 37/30/5
f 10/31/2 9/32/2 24/33/2 1/34/2
f 33/35/6 58/36/6 53/37/6 31/38/6
f 9/3/1 62/39/1 14/40/1 30/4/1
f 13/41/5 27/28/5 40/27/5 57/42/5
f 27/7/2 13/43/2 63/44/2 39/8/2
f 62/45/2 9/32/2 10/31/2 15/46/2
f 16/47/2 11/48/2 64/49/2 48/50/2
f 12/51/6 58/36/6 33/35/6 35/52/6
f 49/53/7 5/54/7 36/55/7
f 36/55/7 5/54/7 76/56/7 66/57/7
f 66/57/7 48/58/7 36/55/7
f 18/59/8 10/60/8 1/61/8 17/62/8
f 42/63/7 2/64/7 39/65/7 41/66/7
f 19/67/8 16/68/8 20/69/8
f 20/69/8 16/68/8 67/70/8 65/71/8
f 65/71/8 56/72/8 20/69/8
f 34/73/2 15/46/2 10/31/2 32/74/2
f 31/19/4 45/18/4 24/75/4 28/76/4
f 47/25/2 4/24/2 25/77/2 3/78/2
f 64/49/2 73/79/2 72/80/2 48/50/2
f 18/81/9 36/82/9 48/83/9 72/84/9
f 18/81/9 72/84/9 32/85/9 10/86/9
f 51/87/9 47/88/9 3/89/9 21/90/9
f 63/44/2 71/91/2 68/92/2 39/8/2
f 61/93/2 6/26/2 47/25/2 60/94/2
f 14/40/1 62/39/1 25/95/1 29/96/1
f 63/44/2 13/43/2 26/97/2 38/98/2
f 11/48/2 75/99/2 74/100/2 64/49/2
f 51/101/7 50/102/7 64/103/7 74/104/7
f 51/101/7 74/104/7 60/105/7 47/106/7
f 23/107/7 63/108/7 38/109/7 43/110/7
f 67/111/2 16/47/2 48/50/2 66/112/2
f 17/113/2 49/114/2 36/115/2 18/116/2
f 30/117/6 33/35/6 31/38/6 28/118/6
f 25/119/10 4/13/10 46/16/10 29/120/10
f 45/21/2 5/9/2 1/34/2 24/33/2
f 35/52/6 33/35/6 30/117/6 14/121/6
f 1/122/11 5/123/11 49/124/11 17/125/11
f 73/126/11 64/127/11 50/128/11 22/129/11
f 34/130/11 73/126/11 22/129/11 15/131/11
f 22/132/2 50/133/2 51/134/2 21/135/2
f 7/17/4 53/20/4 37/136/4 54/137/4
f 52/23/2 6/26/2 38/98/2 26/97/2
f 26/138/10 55/139/10 8/15/10 52/14/10
f 54/6/2 2/5/2 56/10/2 7/22/2
f 69/140/2 11/48/2 16/47/2 70/141/2
f 58/36/6 12/51/6 57/142/6 40/143/6
f 70/144/9 16/145/9 19/146/9 41/147/9
f 70/144/9 41/147/9 68/148/9
f 41/147/9 39/149/9 68/148/9
f 2/150/11 42/151/11 20/152/11 56/153/11
f 6/154/9 59/155/9 43/156/9 38/157/9
f 63/158/11 23/159/11 71/160/11
f 71/160/11 23/159/11 44/161/11 69/162/11
f 44/161/11 11/163/11 69/162/11
f 57/142/6 12/51/6 8/164/6 55/165/6
f 44/166/2 23/167/2 43/168/2 59/169/2
f 41/170/2 19/171/2 20/172/2 42/173/2
f 58/36/6 40/143/6 37/174/6 53/37/6
f 78/175/2 79/176/2 80/177/2 77/178/2
f 82/179/2 83/180/2 84/181/2 81/182/2
f 13/41/5 57/42/5 55/183/5 26/184/5
f 62/45/2 15/46/2 3/78/2 25/77/2
f 12/51/6 35/52/6 46/185/6 8/164/6
f 15/186/8 22/187/8 21/188/8 3/189/8
f 75/190/8 11/191/8 44/192/8 59/193/8
f 61/194/8 75/190/8 59/193/8 6/195/8
f 29/196/6 46/185/6 35/52/6 14/121/6
f 86/197/2 87/198/2 88/199/2 85/200/2
f 90/201/2 91/202/2 92/203/2 89/204/2
f 68/205/7 71/206/7 78/207/7 77/208/7
f 71/209/9 69/210/9 79/211/9 78/212/9
f 69/213/8 70/214/8 80/215/8 79/216/8
f 70/217/11 68/218/11 77/219/11 80/220/11
f 72/221/7 73/222/7 82/223/7 81/224/7
f 73/225/9 34/226/9 83/227/9 82/228/9
f 34/229/8 32/230/8 84/231/8 83/232/8
f 32/233/11 72/234/11 81/235/11 84/236/11
f 74/237/11 75/238/11 86/239/11 85/240/11
f 75/241/7 61/242/7 87/243/7 86/244/7
f 61/245/9 60/246/9 88/247/9 87/248/9
f 60/249/8 74/250/8 85/251/8 88/252/8
f 76/253/11 65/254/11 90/255/11 89/256/11
f 65/257/7 67/258/7 91/259/7 90/260/7
f 67/261/9 66/262/9 92/263/9 91/264/9
f 66/265/8 76/266/8 89/267/8 92/268/8
